# xmcd CD database file
#
# Track frame offsets:
#	150
#	17631
#	38131
#	59654
#	92364
#	111107
#	141552
#	168747
#	189322
#	206312
#	213335
#	241455
#	254571
#	276937
#	285218
#
# Disc length: 4553 seconds
#
# Revision: 1
# Processed by: cddbd v1.5.2PL0 Copyright (c) Steve Scherf et al.
# Submitted via: CDex 1.70
#
DISCID=dc11c70f
DTITLE=Jan GARBAREK - Visible World
DYEAR=1996
DGENRE=Jazz
TTITLE0=Red Wind
TTITLE1=The Creek
TTITLE2=The survivor
TTITLE3=The Healing Smoke
TTITLE4=Visible World (Chiaro)
TTITLE5=Desolate Mountains Part 1
TTITLE6=Desolate Mountains Part 2
TTITLE7=Visible World (Scuro)
TTITLE8=Giulietta
TTITLE9=Desolate Mountains Part 3
TTITLE10=Pygmy Lullaby
TTITLE11=he Quest
TTITLE12=The Arrow
TTITLE13=The Scythe
TTITLE14=Evening Land
EXTD=YEAR: 1996
EXTT0=
EXTT1=
EXTT2=
EXTT3=
EXTT4=
EXTT5=
EXTT6=
EXTT7=
EXTT8=
EXTT9=
EXTT10=
EXTT11=
EXTT12=
EXTT13=
EXTT14=
PLAYORDER=
